{
  "accessors": [
    {
      "bufferView": 2,
      "componentType": 5126,
      "count": 8829,
      "max": [
        3.46990704536438,
        0.5488638281822205,
        2.6607120037078857
      ],
      "min": [
        -0.5700576901435852,
        -1.0121489763259888,
        0.07157027721405029
      ],
      "type": "VEC3"
    },
    {
      "bufferView": 2,
      "byteOffset": 105948,
      "componentType": 5126,
      "count": 8829,
      "max": [
        1.0,
        0.9998804926872253,
        0.9999958872795105
      ],
      "min": [
        -1.0,
        -0.9998804926872253,
        -0.9996886253356934
      ],
      "type": "VEC3"
    },
    {
      "bufferView": 1,
      "componentType": 5126,
      "count": 8829,
      "max": [
        1.0,
        1.0
      ],
      "min": [
        -1.0,
        0.0
      ],
      "type": "VEC2"
    },
    {
      "bufferView": 0,
      "componentType": 5125,
      "count": 13020,
      "type": "SCALAR"
    },
    {
      "bufferView": 2,
      "byteOffset": 211896,
      "componentType": 5126,
      "count": 8562,
      "max": [
        -0.07491430640220642,
        -0.03606998920440674,
        1.9998650550842285
      ],
      "min": [
        -3.2511119842529297,
        -0.9915444254875183,
        0.09387820959091187
      ],
      "type": "VEC3"
    },
    {
      "bufferView": 2,
      "byteOffset": 314640,
      "componentType": 5126,
      "count": 8562,
      "max": [
        0.998847484588623,
        0.9993792772293091,
        0.9999176263809204
      ],
      "min": [
        -0.998847484588623,
        -0.9993792772293091,
        -0.9997072815895081
      ],
      "type": "VEC3"
    },
    {
      "bufferView": 1,
      "byteOffset": 70632,
      "componentType": 5126,
      "count": 8562,
      "max": [
        1.0,
        1.0
      ],
      "min": [
        -1.0,
        0.0
      ],
      "type": "VEC2"
    },
    {
      "bufferView": 0,
      "byteOffset": 52080,
      "componentType": 5125,
      "count": 12528,
      "type": "SCALAR"
    },
    {
      "bufferView": 2,
      "byteOffset": 417384,
      "componentType": 5126,
      "count": 3120,
      "max": [
        1.0076220035552979,
        0.34472930431365967,
        3.402427911758423
      ],
      "min": [
        -0.9828174710273743,
        -1.3115390539169312,
        0.8779860138893127
      ],
      "type": "VEC3"
    },
    {
      "bufferView": 2,
      "byteOffset": 454824,
      "componentType": 5126,
      "count": 3120,
      "max": [
        0.9962813854217529,
        0.9994577765464783,
        0.993072509765625
      ],
      "min": [
        -0.9962812066078186,
        -0.9994577765464783,
        -0.9985300898551941
      ],
      "type": "VEC3"
    },
    {
      "bufferView": 1,
      "byteOffset": 139128,
      "componentType": 5126,
      "count": 3120,
      "max": [
        0.0,
        1.0
      ],
      "min": [
        -1.0,
        0.05000000074505806
      ],
      "type": "VEC2"
    },
    {
      "bufferView": 0,
      "byteOffset": 102192,
      "componentType": 5125,
      "count": 4560,
      "type": "SCALAR"
    }
  ],
  "asset": {
    "extras": {
      "author": "Jacxx2 (https://sketchfab.com/Jacxx2)",
      "license": "CC-BY-4.0 (http://creativecommons.org/licenses/by/4.0/)",
      "source": "https://sketchfab.com/3d-models/among-us-2f43ff0bfcf44a0f91d147645104bd9b",
      "title": "Among us"
    },
    "generator": "Sketchfab-17.15.0",
    "version": "2.0"
  },
  "bufferViews": [
    {
      "buffer": 0,
      "byteLength": 120432,
      "name": "floatBufferViews",
      "target": 34963
    },
    {
      "buffer": 0,
      "byteLength": 164088,
      "byteOffset": 120432,
      "byteStride": 8,
      "name": "floatBufferViews",
      "target": 34962
    },
    {
      "buffer": 0,
      "byteLength": 492264,
      "byteOffset": 284520,
      "byteStride": 12,
      "name": "floatBufferViews",
      "target": 34962
    }
  ],
  "buffers": [
    {
      "byteLength": 776784,
      "uri": "scene.bin"
    }
  ],
  "extensionsUsed": [
    "KHR_materials_unlit"
  ],
  "images": [
    {
      "uri": "textures/material_0_baseColor.png"
    }
  ],
  "materials": [
    {
      "doubleSided": true,
      "extensions": {
        "KHR_materials_unlit": {}
      },
      "name": "material_0",
      "pbrMetallicRoughness": {
        "baseColorTexture": {
          "index": 0
        },
        "metallicFactor": 0.0
      }
    }
  ],
  "meshes": [
    {
      "name": "Object_0",
      "primitives": [
        {
          "attributes": {
            "NORMAL": 1,
            "POSITION": 0,
            "TEXCOORD_0": 2
          },
          "indices": 3,
          "material": 0,
          "mode": 4
        }
      ]
    },
    {
      "name": "Object_1",
      "primitives": [
        {
          "attributes": {
            "NORMAL": 5,
            "POSITION": 4,
            "TEXCOORD_0": 6
          },
          "indices": 7,
          "material": 0,
          "mode": 4
        }
      ]
    },
    {
      "name": "Object_2",
      "primitives": [
        {
          "attributes": {
            "NORMAL": 9,
            "POSITION": 8,
            "TEXCOORD_0": 10
          },
          "indices": 11,
          "material": 0,
          "mode": 4
        }
      ]
    }
  ],
  "nodes": [
    {
      "children": [
        1
      ],
      "matrix": [
        1.0,
        0.0,
        0.0,
        0.0,
        0.0,
        2.220446049250313e-16,
        -1.0,
        0.0,
        0.0,
        1.0,
        2.220446049250313e-16,
        0.0,
        0.0,
        0.0,
        0.0,
        1.0
      ],
      "name": "Sketchfab_model"
    },
    {
      "children": [
        2,
        3,
        4
      ],
      "name": "Among us.obj.cleaner.materialmerger.gles"
    },
    {
      "mesh": 0,
      "name": "Object_2"
    },
    {
      "mesh": 1,
      "name": "Object_3"
    },
    {
      "mesh": 2,
      "name": "Object_4"
    }
  ],
  "samplers": [
    {
      "magFilter": 9729,
      "minFilter": 9987,
      "wrapS": 10497,
      "wrapT": 10497
    }
  ],
  "scene": 0,
  "scenes": [
    {
      "name": "Sketchfab_Scene",
      "nodes": [
        0
      ]
    }
  ],
  "textures": [
    {
      "sampler": 0,
      "source": 0
    }
  ]
}
